<mxfile host="65bd71144e">
    <diagram id="x0VknrqbJ468zNlQNF5y" name="Page-1">
        <mxGraphModel dx="1128" dy="473" grid="1" gridSize="10" guides="1" tooltips="1" connect="1" arrows="1" fold="1" page="1" pageScale="1" pageWidth="827" pageHeight="1169" math="0" shadow="0">
            <root>
                <mxCell id="0"/>
                <mxCell id="1" parent="0"/>
                <mxCell id="S4r2z2meFCep2zHGoDVJ-14" value="User" style="swimlane;fontStyle=0;childLayout=stackLayout;horizontal=1;startSize=26;horizontalStack=0;resizeParent=1;resizeParentMax=0;resizeLast=0;collapsible=1;marginBottom=0;align=center;fontSize=14;" parent="1" vertex="1">
                    <mxGeometry x="30" y="140" width="160" height="146" as="geometry"/>
                </mxCell>
                <mxCell id="S4r2z2meFCep2zHGoDVJ-15" value="id" style="text;strokeColor=none;fillColor=none;spacingLeft=4;spacingRight=4;overflow=hidden;rotatable=0;points=[[0,0.5],[1,0.5]];portConstraint=eastwest;fontSize=12;" parent="S4r2z2meFCep2zHGoDVJ-14" vertex="1">
                    <mxGeometry y="26" width="160" height="30" as="geometry"/>
                </mxCell>
                <mxCell id="S4r2z2meFCep2zHGoDVJ-16" value="email" style="text;strokeColor=none;fillColor=none;spacingLeft=4;spacingRight=4;overflow=hidden;rotatable=0;points=[[0,0.5],[1,0.5]];portConstraint=eastwest;fontSize=12;" parent="S4r2z2meFCep2zHGoDVJ-14" vertex="1">
                    <mxGeometry y="56" width="160" height="30" as="geometry"/>
                </mxCell>
                <mxCell id="S4r2z2meFCep2zHGoDVJ-17" value="password" style="text;strokeColor=none;fillColor=none;spacingLeft=4;spacingRight=4;overflow=hidden;rotatable=0;points=[[0,0.5],[1,0.5]];portConstraint=eastwest;fontSize=12;" parent="S4r2z2meFCep2zHGoDVJ-14" vertex="1">
                    <mxGeometry y="86" width="160" height="30" as="geometry"/>
                </mxCell>
                <mxCell id="S4r2z2meFCep2zHGoDVJ-18" value="role" style="text;strokeColor=none;fillColor=none;spacingLeft=4;spacingRight=4;overflow=hidden;rotatable=0;points=[[0,0.5],[1,0.5]];portConstraint=eastwest;fontSize=12;" parent="S4r2z2meFCep2zHGoDVJ-14" vertex="1">
                    <mxGeometry y="116" width="160" height="30" as="geometry"/>
                </mxCell>
                <mxCell id="S4r2z2meFCep2zHGoDVJ-19" value="Basket" style="swimlane;fontStyle=0;childLayout=stackLayout;horizontal=1;startSize=26;horizontalStack=0;resizeParent=1;resizeParentMax=0;resizeLast=0;collapsible=1;marginBottom=0;align=center;fontSize=14;" parent="1" vertex="1">
                    <mxGeometry x="310" y="140" width="160" height="86" as="geometry"/>
                </mxCell>
                <mxCell id="S4r2z2meFCep2zHGoDVJ-20" value="id" style="text;strokeColor=none;fillColor=none;spacingLeft=4;spacingRight=4;overflow=hidden;rotatable=0;points=[[0,0.5],[1,0.5]];portConstraint=eastwest;fontSize=12;" parent="S4r2z2meFCep2zHGoDVJ-19" vertex="1">
                    <mxGeometry y="26" width="160" height="30" as="geometry"/>
                </mxCell>
                <mxCell id="S4r2z2meFCep2zHGoDVJ-21" value="user_id" style="text;strokeColor=none;fillColor=none;spacingLeft=4;spacingRight=4;overflow=hidden;rotatable=0;points=[[0,0.5],[1,0.5]];portConstraint=eastwest;fontSize=12;" parent="S4r2z2meFCep2zHGoDVJ-19" vertex="1">
                    <mxGeometry y="56" width="160" height="30" as="geometry"/>
                </mxCell>
                <mxCell id="S4r2z2meFCep2zHGoDVJ-26" value="" style="endArrow=classic;startArrow=classic;html=1;rounded=0;exitX=1;exitY=0.5;exitDx=0;exitDy=0;entryX=0;entryY=0.5;entryDx=0;entryDy=0;" parent="1" source="S4r2z2meFCep2zHGoDVJ-15" target="S4r2z2meFCep2zHGoDVJ-20" edge="1">
                    <mxGeometry width="50" height="50" relative="1" as="geometry">
                        <mxPoint x="290" y="290" as="sourcePoint"/>
                        <mxPoint x="340" y="240" as="targetPoint"/>
                    </mxGeometry>
                </mxCell>
                <mxCell id="S4r2z2meFCep2zHGoDVJ-27" value="Device" style="swimlane;fontStyle=0;childLayout=stackLayout;horizontal=1;startSize=26;horizontalStack=0;resizeParent=1;resizeParentMax=0;resizeLast=0;collapsible=1;marginBottom=0;align=center;fontSize=14;" parent="1" vertex="1">
                    <mxGeometry x="254" y="360" width="160" height="236" as="geometry"/>
                </mxCell>
                <mxCell id="S4r2z2meFCep2zHGoDVJ-28" value="id" style="text;strokeColor=none;fillColor=none;spacingLeft=4;spacingRight=4;overflow=hidden;rotatable=0;points=[[0,0.5],[1,0.5]];portConstraint=eastwest;fontSize=12;" parent="S4r2z2meFCep2zHGoDVJ-27" vertex="1">
                    <mxGeometry y="26" width="160" height="30" as="geometry"/>
                </mxCell>
                <mxCell id="S4r2z2meFCep2zHGoDVJ-29" value="price" style="text;strokeColor=none;fillColor=none;spacingLeft=4;spacingRight=4;overflow=hidden;rotatable=0;points=[[0,0.5],[1,0.5]];portConstraint=eastwest;fontSize=12;" parent="S4r2z2meFCep2zHGoDVJ-27" vertex="1">
                    <mxGeometry y="56" width="160" height="30" as="geometry"/>
                </mxCell>
                <mxCell id="S4r2z2meFCep2zHGoDVJ-30" value="name" style="text;strokeColor=none;fillColor=none;spacingLeft=4;spacingRight=4;overflow=hidden;rotatable=0;points=[[0,0.5],[1,0.5]];portConstraint=eastwest;fontSize=12;" parent="S4r2z2meFCep2zHGoDVJ-27" vertex="1">
                    <mxGeometry y="86" width="160" height="30" as="geometry"/>
                </mxCell>
                <mxCell id="S4r2z2meFCep2zHGoDVJ-31" value="rating" style="text;strokeColor=none;fillColor=none;spacingLeft=4;spacingRight=4;overflow=hidden;rotatable=0;points=[[0,0.5],[1,0.5]];portConstraint=eastwest;fontSize=12;" parent="S4r2z2meFCep2zHGoDVJ-27" vertex="1">
                    <mxGeometry y="116" width="160" height="30" as="geometry"/>
                </mxCell>
                <mxCell id="S4r2z2meFCep2zHGoDVJ-32" value="img" style="text;strokeColor=none;fillColor=none;spacingLeft=4;spacingRight=4;overflow=hidden;rotatable=0;points=[[0,0.5],[1,0.5]];portConstraint=eastwest;fontSize=12;" parent="S4r2z2meFCep2zHGoDVJ-27" vertex="1">
                    <mxGeometry y="146" width="160" height="30" as="geometry"/>
                </mxCell>
                <mxCell id="S4r2z2meFCep2zHGoDVJ-33" value="type_id" style="text;strokeColor=none;fillColor=none;spacingLeft=4;spacingRight=4;overflow=hidden;rotatable=0;points=[[0,0.5],[1,0.5]];portConstraint=eastwest;fontSize=12;" parent="S4r2z2meFCep2zHGoDVJ-27" vertex="1">
                    <mxGeometry y="176" width="160" height="30" as="geometry"/>
                </mxCell>
                <mxCell id="S4r2z2meFCep2zHGoDVJ-34" value="brand_id" style="text;strokeColor=none;fillColor=none;spacingLeft=4;spacingRight=4;overflow=hidden;rotatable=0;points=[[0,0.5],[1,0.5]];portConstraint=eastwest;fontSize=12;" parent="S4r2z2meFCep2zHGoDVJ-27" vertex="1">
                    <mxGeometry y="206" width="160" height="30" as="geometry"/>
                </mxCell>
                <mxCell id="S4r2z2meFCep2zHGoDVJ-35" value="Type" style="swimlane;fontStyle=0;childLayout=stackLayout;horizontal=1;startSize=26;horizontalStack=0;resizeParent=1;resizeParentMax=0;resizeLast=0;collapsible=1;marginBottom=0;align=center;fontSize=14;" parent="1" vertex="1">
                    <mxGeometry x="70" y="640" width="160" height="86" as="geometry"/>
                </mxCell>
                <mxCell id="S4r2z2meFCep2zHGoDVJ-36" value="id" style="text;strokeColor=none;fillColor=none;spacingLeft=4;spacingRight=4;overflow=hidden;rotatable=0;points=[[0,0.5],[1,0.5]];portConstraint=eastwest;fontSize=12;" parent="S4r2z2meFCep2zHGoDVJ-35" vertex="1">
                    <mxGeometry y="26" width="160" height="30" as="geometry"/>
                </mxCell>
                <mxCell id="S4r2z2meFCep2zHGoDVJ-37" value="name" style="text;strokeColor=none;fillColor=none;spacingLeft=4;spacingRight=4;overflow=hidden;rotatable=0;points=[[0,0.5],[1,0.5]];portConstraint=eastwest;fontSize=12;" parent="S4r2z2meFCep2zHGoDVJ-35" vertex="1">
                    <mxGeometry y="56" width="160" height="30" as="geometry"/>
                </mxCell>
                <mxCell id="S4r2z2meFCep2zHGoDVJ-40" value="Brand" style="swimlane;fontStyle=0;childLayout=stackLayout;horizontal=1;startSize=26;horizontalStack=0;resizeParent=1;resizeParentMax=0;resizeLast=0;collapsible=1;marginBottom=0;align=center;fontSize=14;" parent="1" vertex="1">
                    <mxGeometry x="430" y="640" width="160" height="86" as="geometry"/>
                </mxCell>
                <mxCell id="S4r2z2meFCep2zHGoDVJ-41" value="id" style="text;strokeColor=none;fillColor=none;spacingLeft=4;spacingRight=4;overflow=hidden;rotatable=0;points=[[0,0.5],[1,0.5]];portConstraint=eastwest;fontSize=12;" parent="S4r2z2meFCep2zHGoDVJ-40" vertex="1">
                    <mxGeometry y="26" width="160" height="30" as="geometry"/>
                </mxCell>
                <mxCell id="S4r2z2meFCep2zHGoDVJ-44" value="name" style="text;strokeColor=none;fillColor=none;spacingLeft=4;spacingRight=4;overflow=hidden;rotatable=0;points=[[0,0.5],[1,0.5]];portConstraint=eastwest;fontSize=12;" parent="S4r2z2meFCep2zHGoDVJ-40" vertex="1">
                    <mxGeometry y="56" width="160" height="30" as="geometry"/>
                </mxCell>
                <mxCell id="S4r2z2meFCep2zHGoDVJ-46" value="" style="endArrow=classic;html=1;rounded=0;exitX=0.5;exitY=0;exitDx=0;exitDy=0;entryX=0;entryY=0.5;entryDx=0;entryDy=0;" parent="1" source="S4r2z2meFCep2zHGoDVJ-35" target="S4r2z2meFCep2zHGoDVJ-31" edge="1">
                    <mxGeometry width="50" height="50" relative="1" as="geometry">
                        <mxPoint x="320" y="610" as="sourcePoint"/>
                        <mxPoint x="370" y="560" as="targetPoint"/>
                    </mxGeometry>
                </mxCell>
                <mxCell id="S4r2z2meFCep2zHGoDVJ-47" value="" style="endArrow=classic;html=1;rounded=0;exitX=0.75;exitY=0;exitDx=0;exitDy=0;entryX=1;entryY=0.5;entryDx=0;entryDy=0;" parent="1" source="S4r2z2meFCep2zHGoDVJ-40" target="S4r2z2meFCep2zHGoDVJ-31" edge="1">
                    <mxGeometry width="50" height="50" relative="1" as="geometry">
                        <mxPoint x="160" y="650" as="sourcePoint"/>
                        <mxPoint x="264" y="501" as="targetPoint"/>
                        <Array as="points">
                            <mxPoint x="480" y="550"/>
                            <mxPoint x="470" y="560"/>
                        </Array>
                    </mxGeometry>
                </mxCell>
                <mxCell id="S4r2z2meFCep2zHGoDVJ-48" value="" style="endArrow=classic;startArrow=classic;html=1;rounded=0;exitX=1;exitY=0.5;exitDx=0;exitDy=0;entryX=0;entryY=0.5;entryDx=0;entryDy=0;" parent="1" source="S4r2z2meFCep2zHGoDVJ-36" target="S4r2z2meFCep2zHGoDVJ-41" edge="1">
                    <mxGeometry width="50" height="50" relative="1" as="geometry">
                        <mxPoint x="320" y="610" as="sourcePoint"/>
                        <mxPoint x="370" y="560" as="targetPoint"/>
                    </mxGeometry>
                </mxCell>
                <mxCell id="S4r2z2meFCep2zHGoDVJ-49" value="Device_info" style="swimlane;fontStyle=0;childLayout=stackLayout;horizontal=1;startSize=26;horizontalStack=0;resizeParent=1;resizeParentMax=0;resizeLast=0;collapsible=1;marginBottom=0;align=center;fontSize=14;" parent="1" vertex="1">
                    <mxGeometry x="550" y="350" width="160" height="146" as="geometry"/>
                </mxCell>
                <mxCell id="S4r2z2meFCep2zHGoDVJ-50" value="id" style="text;strokeColor=none;fillColor=none;spacingLeft=4;spacingRight=4;overflow=hidden;rotatable=0;points=[[0,0.5],[1,0.5]];portConstraint=eastwest;fontSize=12;" parent="S4r2z2meFCep2zHGoDVJ-49" vertex="1">
                    <mxGeometry y="26" width="160" height="30" as="geometry"/>
                </mxCell>
                <mxCell id="S4r2z2meFCep2zHGoDVJ-51" value="device_id" style="text;strokeColor=none;fillColor=none;spacingLeft=4;spacingRight=4;overflow=hidden;rotatable=0;points=[[0,0.5],[1,0.5]];portConstraint=eastwest;fontSize=12;" parent="S4r2z2meFCep2zHGoDVJ-49" vertex="1">
                    <mxGeometry y="56" width="160" height="30" as="geometry"/>
                </mxCell>
                <mxCell id="S4r2z2meFCep2zHGoDVJ-52" value="title" style="text;strokeColor=none;fillColor=none;spacingLeft=4;spacingRight=4;overflow=hidden;rotatable=0;points=[[0,0.5],[1,0.5]];portConstraint=eastwest;fontSize=12;" parent="S4r2z2meFCep2zHGoDVJ-49" vertex="1">
                    <mxGeometry y="86" width="160" height="30" as="geometry"/>
                </mxCell>
                <mxCell id="S4r2z2meFCep2zHGoDVJ-53" value="description" style="text;strokeColor=none;fillColor=none;spacingLeft=4;spacingRight=4;overflow=hidden;rotatable=0;points=[[0,0.5],[1,0.5]];portConstraint=eastwest;fontSize=12;" parent="S4r2z2meFCep2zHGoDVJ-49" vertex="1">
                    <mxGeometry y="116" width="160" height="30" as="geometry"/>
                </mxCell>
                <mxCell id="S4r2z2meFCep2zHGoDVJ-54" value="" style="endArrow=classic;html=1;rounded=0;entryX=0;entryY=0.5;entryDx=0;entryDy=0;exitX=1;exitY=0.5;exitDx=0;exitDy=0;" parent="1" source="S4r2z2meFCep2zHGoDVJ-29" target="S4r2z2meFCep2zHGoDVJ-51" edge="1">
                    <mxGeometry width="50" height="50" relative="1" as="geometry">
                        <mxPoint x="480" y="610" as="sourcePoint"/>
                        <mxPoint x="530" y="560" as="targetPoint"/>
                    </mxGeometry>
                </mxCell>
                <mxCell id="S4r2z2meFCep2zHGoDVJ-55" value="Basket_device" style="swimlane;fontStyle=0;childLayout=stackLayout;horizontal=1;startSize=26;horizontalStack=0;resizeParent=1;resizeParentMax=0;resizeLast=0;collapsible=1;marginBottom=0;align=center;fontSize=14;" parent="1" vertex="1">
                    <mxGeometry x="540" y="100" width="160" height="116" as="geometry"/>
                </mxCell>
                <mxCell id="S4r2z2meFCep2zHGoDVJ-56" value="id" style="text;strokeColor=none;fillColor=none;spacingLeft=4;spacingRight=4;overflow=hidden;rotatable=0;points=[[0,0.5],[1,0.5]];portConstraint=eastwest;fontSize=12;" parent="S4r2z2meFCep2zHGoDVJ-55" vertex="1">
                    <mxGeometry y="26" width="160" height="30" as="geometry"/>
                </mxCell>
                <mxCell id="S4r2z2meFCep2zHGoDVJ-57" value="device_id" style="text;strokeColor=none;fillColor=none;spacingLeft=4;spacingRight=4;overflow=hidden;rotatable=0;points=[[0,0.5],[1,0.5]];portConstraint=eastwest;fontSize=12;" parent="S4r2z2meFCep2zHGoDVJ-55" vertex="1">
                    <mxGeometry y="56" width="160" height="30" as="geometry"/>
                </mxCell>
                <mxCell id="S4r2z2meFCep2zHGoDVJ-58" value="basket_id" style="text;strokeColor=none;fillColor=none;spacingLeft=4;spacingRight=4;overflow=hidden;rotatable=0;points=[[0,0.5],[1,0.5]];portConstraint=eastwest;fontSize=12;" parent="S4r2z2meFCep2zHGoDVJ-55" vertex="1">
                    <mxGeometry y="86" width="160" height="30" as="geometry"/>
                </mxCell>
                <mxCell id="S4r2z2meFCep2zHGoDVJ-60" value="" style="endArrow=classic;html=1;rounded=0;entryX=-0.002;entryY=0.152;entryDx=0;entryDy=0;entryPerimeter=0;exitX=1;exitY=0.5;exitDx=0;exitDy=0;" parent="1" source="S4r2z2meFCep2zHGoDVJ-20" target="S4r2z2meFCep2zHGoDVJ-56" edge="1">
                    <mxGeometry width="50" height="50" relative="1" as="geometry">
                        <mxPoint x="470" y="360" as="sourcePoint"/>
                        <mxPoint x="520" y="310" as="targetPoint"/>
                    </mxGeometry>
                </mxCell>
                <mxCell id="S4r2z2meFCep2zHGoDVJ-61" value="" style="endArrow=classic;html=1;rounded=0;entryX=0;entryY=0.5;entryDx=0;entryDy=0;exitX=0.75;exitY=0;exitDx=0;exitDy=0;" parent="1" source="S4r2z2meFCep2zHGoDVJ-27" target="S4r2z2meFCep2zHGoDVJ-57" edge="1">
                    <mxGeometry width="50" height="50" relative="1" as="geometry">
                        <mxPoint x="470" y="360" as="sourcePoint"/>
                        <mxPoint x="520" y="310" as="targetPoint"/>
                    </mxGeometry>
                </mxCell>
                <mxCell id="S4r2z2meFCep2zHGoDVJ-62" value="Rating" style="swimlane;fontStyle=0;childLayout=stackLayout;horizontal=1;startSize=26;horizontalStack=0;resizeParent=1;resizeParentMax=0;resizeLast=0;collapsible=1;marginBottom=0;align=center;fontSize=14;" parent="1" vertex="1">
                    <mxGeometry x="40" y="360" width="160" height="146" as="geometry"/>
                </mxCell>
                <mxCell id="S4r2z2meFCep2zHGoDVJ-63" value="id" style="text;strokeColor=none;fillColor=none;spacingLeft=4;spacingRight=4;overflow=hidden;rotatable=0;points=[[0,0.5],[1,0.5]];portConstraint=eastwest;fontSize=12;" parent="S4r2z2meFCep2zHGoDVJ-62" vertex="1">
                    <mxGeometry y="26" width="160" height="30" as="geometry"/>
                </mxCell>
                <mxCell id="S4r2z2meFCep2zHGoDVJ-64" value="user_id" style="text;strokeColor=none;fillColor=none;spacingLeft=4;spacingRight=4;overflow=hidden;rotatable=0;points=[[0,0.5],[1,0.5]];portConstraint=eastwest;fontSize=12;" parent="S4r2z2meFCep2zHGoDVJ-62" vertex="1">
                    <mxGeometry y="56" width="160" height="30" as="geometry"/>
                </mxCell>
                <mxCell id="S4r2z2meFCep2zHGoDVJ-65" value="device_id" style="text;strokeColor=none;fillColor=none;spacingLeft=4;spacingRight=4;overflow=hidden;rotatable=0;points=[[0,0.5],[1,0.5]];portConstraint=eastwest;fontSize=12;" parent="S4r2z2meFCep2zHGoDVJ-62" vertex="1">
                    <mxGeometry y="86" width="160" height="30" as="geometry"/>
                </mxCell>
                <mxCell id="S4r2z2meFCep2zHGoDVJ-66" value="rate" style="text;strokeColor=none;fillColor=none;spacingLeft=4;spacingRight=4;overflow=hidden;rotatable=0;points=[[0,0.5],[1,0.5]];portConstraint=eastwest;fontSize=12;" parent="S4r2z2meFCep2zHGoDVJ-62" vertex="1">
                    <mxGeometry y="116" width="160" height="30" as="geometry"/>
                </mxCell>
                <mxCell id="S4r2z2meFCep2zHGoDVJ-67" value="" style="endArrow=classic;html=1;rounded=0;exitX=0.529;exitY=1.076;exitDx=0;exitDy=0;exitPerimeter=0;" parent="1" source="S4r2z2meFCep2zHGoDVJ-18" edge="1">
                    <mxGeometry width="50" height="50" relative="1" as="geometry">
                        <mxPoint x="80" y="410" as="sourcePoint"/>
                        <mxPoint x="130" y="360" as="targetPoint"/>
                    </mxGeometry>
                </mxCell>
                <mxCell id="S4r2z2meFCep2zHGoDVJ-68" value="" style="endArrow=classic;html=1;rounded=0;exitX=0.038;exitY=-0.2;exitDx=0;exitDy=0;exitPerimeter=0;entryX=0.995;entryY=0.048;entryDx=0;entryDy=0;entryPerimeter=0;" parent="1" source="S4r2z2meFCep2zHGoDVJ-30" target="S4r2z2meFCep2zHGoDVJ-64" edge="1">
                    <mxGeometry width="50" height="50" relative="1" as="geometry">
                        <mxPoint x="80" y="410" as="sourcePoint"/>
                        <mxPoint x="130" y="360" as="targetPoint"/>
                    </mxGeometry>
                </mxCell>
            </root>
        </mxGraphModel>
    </diagram>
</mxfile>